<svg id="Layer_1" data-name="Layer 1" xmlns="http://www.w3.org/2000/svg" xmlns:xlink="http://www.w3.org/1999/xlink" viewBox="0 0 311.44 310.4"><defs><style>.cls-1{fill:none;}.cls-2{fill:#7d8d97;}.cls-3{fill:#63c29e;}.cls-4{clip-path:url(#clip-path);}.cls-5{fill:#fff;}.cls-6{fill:#58595b;}.cls-7{fill:#56c5d0;}</style><clipPath id="clip-path" transform="translate(-21.53 -32.56)"><circle class="cls-1" cx="177.24" cy="187.25" r="111.07"/></clipPath></defs><title>Logo_MBF</title><circle class="cls-2" cx="155.72" cy="154.69" r="111.07"/><path class="cls-3" d="M288.09,180.22c.15,2.33.23,4.67.23,7a111.07,111.07,0,1,1-222.14,0c0-1.14,0-2.27.06-3.39L46,199.75,23,174l-1.31,6.22c-.1,2.33-.17,4.67-.17,7a155.72,155.72,0,1,0,311.44,0c0-.11,0-.22,0-.32L312,199.5Z" transform="translate(-21.53 -32.56)"/><g class="cls-4"><path class="cls-5" d="M161.75,108.07s6-4.74,12.67-4c0,0,12.29-1,18.56,10.37,0,0,12.93,0,11.65,8.45,0,0,.51,12.93,3.07,16.13,0,0,7.17,9.6-5.25,15.36,0,0-9.22,4.48-10.37,11.65,0,0-.9,5.63-3.2-2.94,0,0-1.41-9-.38-11,0,0-3.07-.64-2.82,4l5.5,15.87s-5.25.13-3.71,8.19c0,0,2,5.89.64,9.34,0,0-1.28,8.83,2.3,12.16,0,0-5.5,7.3-5,22.4,0,0,.9,10.11,2,12.42,0,0,.64,2.3-.9,2.18,0,0-14.08,4-6,18l2.69,5.38s.77.9-1,1.79c0,0-2.94,2.56-.51,5.5,0,0-61.83-1.54-73.22.26,0,0-32.9,4.48-24.45-2.82,0,0,17.64-15.26,50.31-8.07l1.15.26s14.08,5,6.91-2.94c0,0-21.51-23.3-13.06-33A10.52,10.52,0,0,1,141.65,220s3.84,2,2.3-4.1c0,0-2.3-24.19.51-37.64a144,144,0,0,1,5.38-15.49,25.24,25.24,0,0,0,2.3-10.62s1.15-5.25-1.79-7.3c0,0-1.15-.9-1.15,1.28,0,0-3.07,6.66-6.78,10.37,0,0-2.18,1.79-1.92-1.28,0,0,2.43-6.78-6.91-17.54a8.28,8.28,0,0,1,1.28-11s11-7.3,12-14.34C146.9,112.3,150.61,104.49,161.75,108.07Z" transform="translate(-21.53 -32.56)"/><path class="cls-6" d="M189.4,178s-.13-5.76,3.84-2.18l6,4.86a14,14,0,0,1,8.32-.38s10-11.39,9.86-4c0,0-1.41,8.7-.26,11.9,0,0,2.18,7.81-1.15,11,0,0-1.66,0,.77,4.74a44.47,44.47,0,0,1,3.33,28.67s-2.18,6.4.77,8.06c0,0,5.25.64,7.17,5.5,0,0,2.3,5.63-4.74,15.49,0,0-1.41,4,1.28,2.3,0,0,12.93-3.33,4.74-24.32,0,0-5.38-18.69.51-25.6,0,0,4.51-5.57,13.54-4.19,0,0,5.21.53,8.35,4.13a3.07,3.07,0,0,1,1,2s.06,4.22-7.1.9c0,0-12.42-6.27-13.44,7.3,0,0,.51,11.65,3.84,20,0,0,8.45,22.79-14.21,26.37,0,0-10.11.13-13.31-.64,0,0-1.92-1-7.68-.38,0,0-17.79,1.66-17.79-2,0,0-.64-2,2.94-3.07,0,0,.64-1.28-.77-3.84,0,0-6.91-8.83-4.1-14.47,0,0,.51-3.58,5.5-4.86,0,0,4-.77,2.94-5.5,0,0-3.58-14.34-.38-23.55,0,0,2.82-9.22,4.1-10.5,0,0-5.38-4.22-2.82-12.29,0,0,1-4.86.13-7.68A14.15,14.15,0,0,1,189.4,178Z" transform="translate(-21.53 -32.56)"/></g><path class="cls-7" d="M39.18,115.63a1.71,1.71,0,0,1,1,.92l.6,1.18a10,10,0,0,0,2.42,1.66,182.17,182.17,0,0,0,20.13,9.38q5.73,2.25,7.25.48l1.38.54a2.15,2.15,0,0,1,.54,2.4q-1,2.61-6.1,2.15a25,25,0,0,1-7.14-1.68q-7.73-3-12.74-5.47,5.39,3.88,10.81,7.84,8.2,6.52,7.15,9.17-1.18,3-7.56,3.16a143.35,143.35,0,0,1-18.75-1.29q3.36,1.67,7,3.1a112.9,112.9,0,0,0,11.06,3.88,8.84,8.84,0,0,0,2.19.21,6.94,6.94,0,0,1,2.33.31q1.69.66.58,3.48-1.31,3.33-10.27-.19-3.63-1.43-10.69-4.67t-10.64-4.65a1.46,1.46,0,0,0-1,.07,1.45,1.45,0,0,1-1,.07q-2.87-1.13-.86-6.25a5,5,0,0,1,2.59-2.23q1.65.47,5,1.38a100.63,100.63,0,0,0,12.87,2.28q10.56,1.25,11.28-.59.16-.41-1.17-1.7a57.45,57.45,0,0,0-7.67-5.91l-8.18-5.34q-1.94-1.23-5.46-3.86-2.5-2.22-1.15-5.65a10.69,10.69,0,0,1,1.73-2.75Q38.21,115.24,39.18,115.63Z" transform="translate(-21.53 -32.56)"/><path class="cls-7" d="M79.31,103.64a77.21,77.21,0,0,1,7.8,6.29,2,2,0,0,1,0,2.87q-1.83,2.48-4.11.39a13.08,13.08,0,0,1-2.33,5.39,11.09,11.09,0,0,1-4.38,3.54q-3.2,1.47-5.33-.09t-1.81-5.7a11.28,11.28,0,0,1,1.91-6l2.77-3.77-1.05-.78q-4.58-3.44-6.64-.65-2.58,3.5.67,5.89,1.1.81.18,2a3.1,3.1,0,0,1-1.84,1.07,2.38,2.38,0,0,1-2-.24,6.5,6.5,0,0,1-2.77-4.77,7.62,7.62,0,0,1,1.53-5.43Q68,95.33,79.31,103.64Zm-1.7,5.65q-.88-.65-1.86.68-4.08,5.54-1.46,7.46,1.42,1,3.21-1.39a6.47,6.47,0,0,0,1.24-3.45A3.33,3.33,0,0,0,77.62,109.29Z" transform="translate(-21.53 -32.56)"/><path class="cls-7" d="M104,92.41a2.4,2.4,0,0,1-.66,2.3,8.13,8.13,0,0,1-3,1.25l-.44-.49q-.81-.9-2.36-2.69t-2.29-2.6q-7.9-8.72-10.5-6.37a3.34,3.34,0,0,0-.63,2.65,17.37,17.37,0,0,0,4.77,11A15.89,15.89,0,0,0,91,99.32a16.09,16.09,0,0,1,2.13,1.82,1.49,1.49,0,0,1,.32,1.42,2.66,2.66,0,0,1-.81,1.4q-2.45,2.21-5.25-.88l-7.72-8.52a10.81,10.81,0,0,1-.79-1,11.07,11.07,0,0,0-.79-1,14.06,14.06,0,0,0-1.44-1.3,13.63,13.63,0,0,1-1.4-1.26A2.19,2.19,0,0,1,74.9,88a3.11,3.11,0,0,1,.83-1.83,3.51,3.51,0,0,1,2.76-.64l1.35,1.74q-.67-3.77,1.53-5.77a7.82,7.82,0,0,1,3.9-1.75,9.11,9.11,0,0,1,4.32.1q4.48,1.58,9.06,6.64Z" transform="translate(-21.53 -32.56)"/><path class="cls-7" d="M88.09,63.59a2.94,2.94,0,0,1-.35-2.5,3.84,3.84,0,0,1,1.59-2.3,3.44,3.44,0,0,1,3.08-.38,5.51,5.51,0,0,1,3,2.29,13.63,13.63,0,0,1,1.79,3.38,8.38,8.38,0,0,1,.35,3.23,12.51,12.51,0,0,1-.65,3.42A4.32,4.32,0,0,1,95.4,73a1.77,1.77,0,0,1-1.45.17q-.67-.24-.6-1.22a10.65,10.65,0,0,0,.86-2.39,5.09,5.09,0,0,0-.12-2.65,3.89,3.89,0,0,0-.79-1.49,2,2,0,0,0-1.7-.67,11.93,11.93,0,0,1-2-.09A2.2,2.2,0,0,1,88.09,63.59Z" transform="translate(-21.53 -32.56)"/><path class="cls-7" d="M126.54,73a5.83,5.83,0,0,1,.19,5A9.58,9.58,0,0,1,122,82.92a9.9,9.9,0,0,1-3.68,1.16q-7,.93-7.71-.42-1.14-2.13,1.91-3.77c.29-.16.61-.3.95-.44q.92,1.38,3.57,1.08a8.85,8.85,0,0,0,4-1.32q1.35-.85.86-1.77a2.24,2.24,0,0,0-.31-.4,2.31,2.31,0,0,1-.32-.42q-.09-.17-2.25.24-2.42.49-2.72.52-7.29-.34-9.79-5a10.32,10.32,0,0,1-1.18-6,6,6,0,0,1,3.06-5,10.19,10.19,0,0,1,5.36-.88,7.56,7.56,0,0,1,4.92,1.67,8.41,8.41,0,0,1,1.5,1.88,4.3,4.3,0,0,1,.54,1.58l.2,1.77a3.68,3.68,0,0,1-1.5,1.62,4.78,4.78,0,0,1-1.95.26q-1.46,0-1.7-.43a5.79,5.79,0,0,1-.09-1.57,2.68,2.68,0,0,0-.23-1.25q-1.56-2.91-3.84-1.69-1.36.73-1.15,2.86a8.94,8.94,0,0,0,1,3.19q1,1.94,4.63,2l6.31-.45Q125.84,71.7,126.54,73Z" transform="translate(-21.53 -32.56)"/><path class="cls-7" d="M165.36,57.83a6.65,6.65,0,0,1-.23,3.46q-2.6,7.39-12.11,9.23a27.94,27.94,0,0,1-5.86.4A2.14,2.14,0,0,1,145.49,73q-2.59.5-3-1.66l-.07-.38-.07-.38c-.06-.32-.16-.51-.28-.56q-.76-.19-1.49-.44a1.46,1.46,0,0,1-.91-1.22,1.73,1.73,0,0,1,1.25-2.2l0-.11-.62-3.19-.63-3.24-.07-.38a2,2,0,0,1-1.34-1.42,2.23,2.23,0,0,1,.68-2L135.73,39.3a2.54,2.54,0,0,1,.61-1.94A2.78,2.78,0,0,1,138,36.12a2.92,2.92,0,0,1,1.68,0l1.31,1,.09,2.5a11.49,11.49,0,0,1,8.45-6.84,8.7,8.7,0,0,1,7.74,1.92,12.06,12.06,0,0,1,3.84,7.16,14,14,0,0,1-.1,5.57,11.87,11.87,0,0,1-2.15,5.12Q164.46,53.19,165.36,57.83Zm-9.22-15.25q-1.28-6.64-6.09-5.71-3.46.67-5.54,5.83A14.55,14.55,0,0,0,143.26,51l.67,3.46,2.92-.56q5.67-1.1,7.78-3.24Q157.18,48,156.14,42.58Zm4.24,15.86q-.4-2.09-5.75-1.73-2.19.2-7.14,1.16-1.78.34-2.88.67.22,1.41.44,2.59l.64,3.33q.22,1.13.43,1.92a15.57,15.57,0,0,0,6,0,12.74,12.74,0,0,0,5.61-2.75Q160.89,61.07,160.38,58.44Z" transform="translate(-21.53 -32.56)"/><path class="cls-7" d="M189.33,63.61q-.07,2.75-3.85,4.19a15.78,15.78,0,0,1-6.13,1q-8.47-.22-8.21-9.85a24.06,24.06,0,0,1,2.16-8.75q2.52-5.87,5.88-5.79,3,.08,6.44,2.87t3.34,5.7a6.61,6.61,0,0,1-3.4,5.69,11.92,11.92,0,0,1-6.87,1.74,6.16,6.16,0,0,1-2.45-1q.08,5.23,2.94,5.31A9.29,9.29,0,0,0,184,63.53a9,9,0,0,1,3-1.29Q189.36,62.29,189.33,63.61Zm-5.72-10.55a4.74,4.74,0,0,0-.73-2.63,2.42,2.42,0,0,0-2.08-1.29A3.13,3.13,0,0,0,178,50.66a6.19,6.19,0,0,0-.91,3.22,2.21,2.21,0,0,0,.67,1.72,2.57,2.57,0,0,0,1.8.71Q183.52,56.42,183.61,53.06Z" transform="translate(-21.53 -32.56)"/><path class="cls-7" d="M210.7,66.82a5.83,5.83,0,0,1-3,4,9.59,9.59,0,0,1-6.77.78,9.89,9.89,0,0,1-3.58-1.44q-6-3.72-5.69-5.23.47-2.37,3.87-1.7.49.1,1,.26-.16,1.65,2.07,3.11a8.86,8.86,0,0,0,3.91,1.51q1.58.2,1.79-.82a2.26,2.26,0,0,0,0-.5,2.29,2.29,0,0,1,0-.53q0-.19-1.88-1.25-2.18-1.16-2.43-1.33-5.42-4.89-4.38-10.07a10.32,10.32,0,0,1,2.93-5.42,6,6,0,0,1,5.54-1.92,10.19,10.19,0,0,1,4.7,2.73,7.55,7.55,0,0,1,2.74,4.42,8.4,8.4,0,0,1,0,2.41,4.31,4.31,0,0,1-.59,1.56l-1,1.49a3.68,3.68,0,0,1-2.19.29,4.78,4.78,0,0,1-1.67-1q-1.13-.93-1-1.41a5.8,5.8,0,0,1,.93-1.27,2.69,2.69,0,0,0,.61-1.11q.65-3.24-1.89-3.74-1.51-.3-2.71,1.48a8.92,8.92,0,0,0-1.24,3.12q-.43,2.16,2.3,4.5,2.56,1.8,5.16,3.67Q211,65.36,210.7,66.82Z" transform="translate(-21.53 -32.56)"/><path class="cls-7" d="M232,59.56q-.52,1.39-5,.38-.53,1.1-2,5.11l-1.27,3.4a23.22,23.22,0,0,0-.83,3.16,23.25,23.25,0,0,1-.81,3.1,2,2,0,0,1-1.37,1.16,2.85,2.85,0,0,1-1.89,0q-1.29-.48-1.34-3a9.56,9.56,0,0,1,.56-3.55l4.08-10.92q-2.24-1.25-2.56-1.48-1.19-.91-.9-1.69a1.34,1.34,0,0,1,.28-.43,4,4,0,0,1,3.7-.79l.31.12a1.49,1.49,0,0,0,.29.17q1.08.4,2-2.14l1.4-3.76a2.58,2.58,0,0,1,.11-1.08,1.6,1.6,0,0,1,1.24-.92,2.88,2.88,0,0,1,1.71,0,3,3,0,0,1,1.67,1.77,3.26,3.26,0,0,1,.17,2.5,8.54,8.54,0,0,1-1.3,2.3A7.69,7.69,0,0,0,229,55.38l-.08.21Q232.81,57.5,232,59.56Z" transform="translate(-21.53 -32.56)"/><path class="cls-7" d="M276,69.13q-1.15,1.61-3.3.08a9.42,9.42,0,0,1-.78-.66,9.32,9.32,0,0,0-.78-.66,24.85,24.85,0,0,0-5-2.58q-4.27-1.69-5.26-2.19L257.13,67a41.4,41.4,0,0,0-3.49,4.14q-1,1.43-.27,1.9l.35.18q3.85,2.27,5.24,3.26,3.18,2.26,3.17,5.23-1.34,1.88-2.73.89a4.16,4.16,0,0,1-.69-.69,4.15,4.15,0,0,0-.69-.69q-.58-.42-1.63-1.23l-1.66-1.18a25.45,25.45,0,0,0-4-2.41,1.67,1.67,0,0,0-1.16-.18,4.24,4.24,0,0,0-1,1q-.69.83-1.3,1.68-3.75,5.26-3.71,6a4.19,4.19,0,0,1-.26,1.78,2,2,0,0,1-1.62.71,2.74,2.74,0,0,1-1.8-.37,2.58,2.58,0,0,1-1.39-2.41q.27-2.38,3.76-7.27,1.92-2.69,6.24-7.67T254.77,62q1.41-2,1.09-2.2a2,2,0,0,0-.32-.16,1.87,1.87,0,0,1-.32-.16,1.58,1.58,0,0,1-.5-1.44,3,3,0,0,1,.49-1.68,1.44,1.44,0,0,1,1.65-.45,13.83,13.83,0,0,1,1.81.61,2.6,2.6,0,0,1,.31-.72,1.65,1.65,0,0,1,2.61-.44q.85.61,1.65,3.27a85.16,85.16,0,0,1,10.67,5.78,7.12,7.12,0,0,1,2,2.11A2.27,2.27,0,0,1,276,69.13Z" transform="translate(-21.53 -32.56)"/><path class="cls-7" d="M278.94,93.73a10.34,10.34,0,0,1-.93.78,3.13,3.13,0,0,1-2.88-.52,2.31,2.31,0,0,1-.48-2.17q1.66-1.84.48-3-.7-.7-5.39,2a24.5,24.5,0,0,0-5,4.12,17.16,17.16,0,0,0-3.07,3.62,4.9,4.9,0,0,1-.71,1.31,1.76,1.76,0,0,1-1.66.48,3.26,3.26,0,0,1-1.74-.91q-2.09-2.07-.16-4A3.11,3.11,0,0,1,258,95a3.06,3.06,0,0,0,.6-.41q2-2,5.65-6.13t5.62-6.09q1.74-1.76,3.85.32a2.64,2.64,0,0,1,1,2.44,4.59,4.59,0,0,1,3.67,1.22,4.91,4.91,0,0,1,1.3,2.29,6.76,6.76,0,0,1,0,2.7A4.39,4.39,0,0,1,278.94,93.73Z" transform="translate(-21.53 -32.56)"/><path class="cls-7" d="M288,101.12a12.85,12.85,0,0,1-2.46,1.43,12.86,12.86,0,0,0-2.46,1.43l-8.8,7.14a13.28,13.28,0,0,0-2.15,2.59,2.29,2.29,0,0,1-2.14-.63,3.43,3.43,0,0,1,.28-5.16q4.65-4.48,7.17-6.53A78.84,78.84,0,0,1,284.79,96l.43-.35q.77-.62,1.73.56a7.27,7.27,0,0,1,1.29,2.46Q288.87,100.39,288,101.12Zm6.29-4.47a2.58,2.58,0,0,1-2.06.61,2.87,2.87,0,0,1-1.88-1.09,4.19,4.19,0,0,1-.91-2.7,3,3,0,0,1,1.1-2.49,2.55,2.55,0,0,1,2.07-.59,3,3,0,0,1,1.93,1.16,4,4,0,0,1,.92,2.66A3,3,0,0,1,294.26,96.65Z" transform="translate(-21.53 -32.56)"/><path class="cls-7" d="M286.7,128.47q-2.32,1.47-5.62-.87a15.78,15.78,0,0,1-4.29-4.51q-4.53-7.16,3.61-12.3a24,24,0,0,1,8.47-3.08q6.28-1.18,8.08,1.66,1.62,2.56,1.21,6.95t-2.87,6a6.61,6.61,0,0,1-6.62.35,11.93,11.93,0,0,1-5.27-4.73,6.18,6.18,0,0,1-.53-2.59q-4.3,3-2.77,5.4a9.29,9.29,0,0,0,3.71,3.29,9,9,0,0,1,2.76,1.8Q287.82,127.77,286.7,128.47Zm5.58-10.62a4.76,4.76,0,0,0,1.78-2.07,2.42,2.42,0,0,0-.09-2.45,3.13,3.13,0,0,0-2.85-1.52,6.19,6.19,0,0,0-3.18,1,2.21,2.21,0,0,0-1.06,1.52,2.56,2.56,0,0,0,.41,1.89Q289.45,119.64,292.28,117.85Z" transform="translate(-21.53 -32.56)"/><path class="cls-7" d="M291.77,151.9a2.4,2.4,0,0,1-1.93-1.43,8.13,8.13,0,0,1-.11-3.27l.61-.24q1.12-.45,3.34-1.27t3.24-1.23q10.94-4.34,9.65-7.59-.36-.91-2.26-1.52a17.37,17.37,0,0,0-12,.59,15.9,15.9,0,0,0-2.45,1.36,16.07,16.07,0,0,1-2.45,1.36,1.49,1.49,0,0,1-1.44-.2,2.66,2.66,0,0,1-1-1.25q-1.22-3.07,2.67-4.61l10.69-4.24a10.94,10.94,0,0,1,1.24-.37,11,11,0,0,0,1.24-.37,13.94,13.94,0,0,0,1.72-.89,13.6,13.6,0,0,1,1.67-.87,2.2,2.2,0,0,1,1.93.33,3.12,3.12,0,0,1,1.42,1.42,3.51,3.51,0,0,1-.37,2.81l-2.11.66q3.77.69,4.86,3.46a7.82,7.82,0,0,1,.27,4.27,9.09,9.09,0,0,1-1.6,4q-3.05,3.64-9.39,6.15Z" transform="translate(-21.53 -32.56)"/><path class="cls-7" d="M328.88,168.31a19.36,19.36,0,0,1-3.14.25q-2.62,0-3.13,0-1.71.15-10,1.34t-9.15,1.35a20.72,20.72,0,0,0-7.57,2.59q-1.68-.64-1.91-1.83a3.15,3.15,0,0,1,.53-2.39,3.46,3.46,0,0,1,2-1.49,7.83,7.83,0,0,1-3.3-4.75,7.44,7.44,0,0,1,1.61-6.62,10.29,10.29,0,0,1,6.17-3.22,26.65,26.65,0,0,1,10,.14q6.68,1.32,7.43,5.32a7.75,7.75,0,0,1-1.2,5.26q2.59-.21,13-2.16,1-.18,1.25,1.28a5.29,5.29,0,0,1-.3,3.16A3,3,0,0,1,328.88,168.31Zm-19.5-2.84a7.1,7.1,0,0,0,3.2-1.44,3.11,3.11,0,0,0,1.33-3q-.46-2.43-5.51-2.83a25.53,25.53,0,0,0-7,.3q-5,.94-4.48,3.86t5.31,3.54A24.46,24.46,0,0,0,309.38,165.47Z" transform="translate(-21.53 -32.56)"/></svg>